Phish
Thursday, April 18, 1991
Oberlin College, Oberlin, OH


The levels were too hot during this recording, the highs sound decent but the lows can be a bit distorted at times.
If not for the distortion this show would sound great. I figured I'd get this out there for historical purposes and
hopefully a better source will come out of it. PLEASE if you have a better source let me know, this is a smokin show
that should be heard the right way.


Source: Nakamichi CM300 > Sony D5

Transfer: Tascam DA-20-> Coax-> Waveterminal 2496-> Cool Edit Pro > .wav > CDwav > Flac

Transfered by: Alec Swensen


Disc One:

 Set I:
01. Sweet Adaline
02. The Landlady
03. My Sweet One
04. Esther
05. Chalkdust Torture
06. Geulah Parpaya
07. Runaway Jim
08. Dinner and a Movie
09. Foam #
10. YEM 

Disc Two:

 Set II:
01. Llama, 
02. Reba, 
03. The Oh Kee Pa Ceremony 
04. The Sloth 
05. Paul and Silas 
06. Horn, 
07. Suzy Greenberg 
08. Split Open and Melt ##
09. The Squirming Coil 
10. Possum
Encore:
11. Harpua


# Tape Flip right after Foam, beginning cut on YEM
## Tape Flip, end of SOAM cut



shntool output:

    length     expanded size    cdr  WAVE problems  fmt   ratio  filename
     2:12.58       23421260 B   ---   --   -----    wav  1.0000  c:\shows\ph1991
-04-18.flac\ph91-04-18d1t01.wav
     3:51.27       40811948 B   ---   --   -----    wav  1.0000  c:\shows\ph1991
-04-18.flac\ph91-04-18d1t02.wav
     1:58.17       20855228 B   ---   --   -----    wav  1.0000  c:\shows\ph1991
-04-18.flac\ph91-04-18d1t03.wav
     8:59.39       95171372 B   ---   --   -----    wav  1.0000  c:\shows\ph1991
-04-18.flac\ph91-04-18d1t04.wav
     6:10.01       65270396 B   ---   --   -----    wav  1.0000  c:\shows\ph1991
-04-18.flac\ph91-04-18d1t05.wav
     5:44.38       60771020 B   ---   --   -----    wav  1.0000  c:\shows\ph1991
-04-18.flac\ph91-04-18d1t06.wav
     6:05.57       64520108 B   ---   --   -----    wav  1.0000  c:\shows\ph1991
-04-18.flac\ph91-04-18d1t07.wav
     3:31.06       37234556 B   ---   --   -----    wav  1.0000  c:\shows\ph1991
-04-18.flac\ph91-04-18d1t08.wav
     7:29.04       79213052 B   ---   --   -----    wav  1.0000  c:\shows\ph1991
-04-18.flac\ph91-04-18d1t09.wav
    16:25.53      173878700 B   ---   --   -----    wav  1.0000  c:\shows\ph1991
-04-18.flac\ph91-04-18d1t10.wav
     4:39.20       49262684 B   ---   --   -----    wav  1.0000  c:\shows\ph1991
-04-18.flac\ph91-04-18d2t01.wav
    11:03.16      116990876 B   ---   --   -----    wav  1.0000  c:\shows\ph1991
-04-18.flac\ph91-04-18d2t02.wav
     1:45.24       18578492 B   ---   --   -----    wav  1.0000  c:\shows\ph1991
-04-18.flac\ph91-04-18d2t03.wav
     3:47.35       40125164 B   ---   --   -----    wav  1.0000  c:\shows\ph1991
-04-18.flac\ph91-04-18d2t04.wav
     3:25.25       36220844 B   ---   --   -----    wav  1.0000  c:\shows\ph1991
-04-18.flac\ph91-04-18d2t05.wav
     4:07.15       43606124 B   ---   --   -----    wav  1.0000  c:\shows\ph1991
-04-18.flac\ph91-04-18d2t06.wav
     5:42.38       60418220 B   ---   --   -----    wav  1.0000  c:\shows\ph1991
-04-18.flac\ph91-04-18d2t07.wav
     7:10.23       75906140 B   ---   --   -----    wav  1.0000  c:\shows\ph1991
-04-18.flac\ph91-04-18d2t08.wav
     6:19.51       66975596 B   ---   --   -----    wav  1.0000  c:\shows\ph1991
-04-18.flac\ph91-04-18d2t09.wav
    10:44.59      113740412 B   ---   --   -----    wav  1.0000  c:\shows\ph1991
-04-18.flac\ph91-04-18d2t10.wav
    13:32.74      143410892 B   ---   --   -----    wav  1.0000  c:\shows\ph1991
-04-18.flac\ph91-04-18d2t11.wav
   134:46.05     1426383084 B                            1.0000  (21 files)